<svg width="412" height="113" xmlns="http://www.w3.org/2000/svg" version="1.1">
 <!-- Generator: Sketch 53.2 (72643) - https://sketchapp.com -->

 <title>Dark</title>
 <desc>Created with Sketch.</desc>
 <g>
  <title>Layer 1</title>
  <g stroke="null" id="Design" fill="none" fill-rule="evenodd">
   <g stroke="null" id="social" fill-rule="nonzero">
    <g stroke="null" id="Dark">
     <path stroke="#A6A6A6" d="m47.64479,22.1342l-33.48473,35.14641c-1.43083,1.50183 -1.55518,4.08299 -0.27775,5.76517c0.10816,0.14242 0.22466,0.27575 0.34868,0.39899l33.41379,33.20643" id="Path" stroke-width="10.24" stroke-linecap="round"/>
     <path stroke="#A6A6A6" d="m229.9789,22.1342l33.48473,35.14641c1.43083,1.50183 1.55518,4.08299 0.27775,5.76517c-0.10816,0.14242 -0.22466,0.27575 -0.34868,0.39899l-33.41379,33.20643" id="Path" stroke-width="10.24" stroke-linecap="round"/>
     <g stroke="null" id="cdnjsCN">
      <path stroke="null" d="m57.19286,59.66878c0,-3.15763 0.41676,-6.11106 1.25029,-8.86038c0.83353,-2.74931 2.02592,-5.13111 3.57722,-7.14547c1.55129,-2.01435 3.43829,-3.59314 5.66104,-4.73643c2.22275,-1.14328 4.72331,-1.71491 7.50175,-1.71491c3.42674,0 6.6682,0.73496 9.72449,2.20488l-1.80597,8.08459c-0.97246,-0.48997 -2.07224,-0.89829 -3.29938,-1.22494c-1.22715,-0.32665 -2.53531,-0.48997 -3.92453,-0.48997c-3.28782,0 -5.78838,1.21131 -7.50175,3.63398c-1.71337,2.42267 -2.57004,5.83885 -2.57004,10.24864c0,4.24647 0.81037,7.60821 2.43112,10.08531c1.62075,2.47711 4.35284,3.71565 8.19635,3.71565c1.43553,0 2.84788,-0.16332 4.2371,-0.48997c1.38922,-0.32665 2.59319,-0.73496 3.61195,-1.22494l1.18083,8.16625c-0.92614,0.54442 -2.32692,1.03439 -4.20236,1.46992c-1.87545,0.43554 -3.80875,0.6533 -5.79996,0.6533c-3.10259,0 -5.79995,-0.55803 -8.09216,-1.67408c-2.29222,-1.11606 -4.19078,-2.66763 -5.69577,-4.65476c-1.50499,-1.98713 -2.62792,-4.35532 -3.36884,-7.10464c-0.74091,-2.74931 -1.11137,-5.72997 -1.11137,-8.94204zm41.28762,-0.16332c0,4.35535 0.87982,7.77153 2.6395,10.24864c1.75968,2.47711 4.19078,3.71565 7.29336,3.71565c1.34292,0 2.489,-0.06805 3.4383,-0.20416c0.9493,-0.1361 1.72493,-0.28582 2.32693,-0.44915l0,-24.49874c-0.74092,-0.59886 -1.72493,-1.15688 -2.95208,-1.67408c-1.22714,-0.5172 -2.53531,-0.7758 -3.92453,-0.7758c-3.05628,0 -5.29057,1.22493 -6.70295,3.67481c-1.41237,2.44989 -2.11854,5.77079 -2.11854,9.96283zm24.10283,20.17063c-1.66706,0.59886 -3.76244,1.14327 -6.28619,1.63325c-2.52374,0.48998 -5.1748,0.73496 -7.95324,0.73496c-2.87105,0 -5.44107,-0.51719 -7.71013,-1.55159c-2.26906,-1.0344 -4.20236,-2.51792 -5.79996,-4.4506c-1.5976,-1.93269 -2.82473,-4.27366 -3.68141,-7.02298c-0.85668,-2.74931 -1.28502,-5.83885 -1.28502,-9.26869c0,-3.3754 0.35887,-6.43771 1.07664,-9.18703c0.71776,-2.74931 1.77124,-5.10389 3.16046,-7.0638c1.38922,-1.95991 3.07941,-3.47065 5.07063,-4.53226c1.99121,-1.06162 4.28339,-1.59242 6.8766,-1.59242c1.75968,0 3.31095,0.24499 4.65386,0.73496c1.34291,0.48998 2.50057,1.03439 3.47303,1.63325l0,-20.49728l8.40473,-1.63325l0,62.06348zm11.28064,-40.01461c1.62076,-0.54442 3.72771,-1.06161 6.32092,-1.55159c2.5932,-0.48997 5.46421,-0.73496 8.61311,-0.73496c2.96367,0 5.44107,0.47636 7.43229,1.42909c1.99121,0.95274 3.57722,2.28654 4.75805,4.00146c1.18083,1.71493 2.01435,3.78368 2.50058,6.20635c0.48623,2.42267 0.72934,5.07667 0.72934,7.96209l0,24.00877l-8.40474,0l0,-22.45718c0,-2.28656 -0.12734,-4.23283 -0.38203,-5.83887c-0.25469,-1.60603 -0.67145,-2.91262 -1.25029,-3.91979c-0.57884,-1.00718 -1.36605,-1.74213 -2.36166,-2.20489c-0.99561,-0.46276 -2.21116,-0.69413 -3.64668,-0.69413c-1.06507,0 -2.17642,0.08166 -3.33411,0.24499c-1.15768,0.16332 -2.01435,0.29943 -2.57005,0.40831l0,34.46156l-8.40473,0l0,-41.32121z" id="cdn" fill="#FF6934"/>
      <path stroke="null" d="m170.42824,96.1719c-0.602,0 -1.44709,-0.06804 -2.53531,-0.20416c-1.08822,-0.1361 -2.04909,-0.3947 -2.88262,-0.77579l1.11137,-8.08459c1.01876,0.38109 2.24589,0.57164 3.68141,0.57164c1.94491,0 3.31095,-0.6669 4.09817,-2.00073c0.78723,-1.33382 1.18083,-3.33454 1.18083,-6.00219l0,-41.40287l8.40473,0l0,41.56619c0,5.55308 -1.12294,9.66338 -3.36884,12.33104c-2.24591,2.66765 -5.47579,4.00146 -9.68976,4.00146zm13.96159,-70.39304c0,1.85102 -0.50937,3.32093 -1.52814,4.40977c-1.01876,1.08884 -2.22273,1.63325 -3.61195,1.63325c-1.43553,0 -2.66265,-0.54441 -3.68141,-1.63325c-1.01876,-1.08884 -1.52813,-2.55875 -1.52813,-4.40977c0,-1.90546 0.50937,-3.4026 1.52813,-4.49144c1.01876,-1.08884 2.24589,-1.63325 3.68141,-1.63325c1.38922,0 2.59319,0.54441 3.61195,1.63325c1.01876,1.08884 1.52814,2.58597 1.52814,4.49144zm19.47698,48.0992c2.22276,0 3.84348,-0.31304 4.86224,-0.93912c1.01876,-0.62608 1.52814,-1.70129 1.52814,-3.22566c0,-1.41549 -0.54411,-2.58598 -1.63232,-3.51149c-1.08822,-0.92551 -2.8826,-1.93268 -5.3832,-3.02151c-1.52814,-0.6533 -2.92892,-1.34743 -4.20237,-2.0824c-1.27345,-0.73496 -2.37323,-1.59242 -3.29938,-2.57237c-0.92615,-0.97995 -1.65547,-2.16405 -2.18801,-3.55232c-0.53253,-1.38827 -0.7988,-3.08955 -0.7988,-5.1039c0,-3.91982 1.22713,-7.00935 3.68141,-9.26869c2.45428,-2.25934 5.78837,-3.38899 10.00233,-3.38899c2.13013,0 4.16762,0.23137 6.11253,0.69413c1.94491,0.46276 3.40356,0.91189 4.37602,1.34743l-1.52813,8.00292c-0.92615,-0.48998 -2.10697,-0.93912 -3.5425,-1.34743c-1.43552,-0.40831 -3.10256,-0.61247 -5.00116,-0.61247c-1.71337,0 -3.10257,0.34025 -4.16764,1.02078c-1.06507,0.68052 -1.5976,1.72851 -1.5976,3.144c0,0.70775 0.10419,1.33382 0.31258,1.87824c0.20838,0.54442 0.56726,1.048 1.07664,1.51075c0.50939,0.46276 1.18083,0.9255 2.01436,1.38826c0.83353,0.46276 1.85228,0.93912 3.05627,1.42909c1.99121,0.87108 3.6814,1.72852 5.07063,2.57237c1.38922,0.84385 2.53531,1.79657 3.4383,2.85819c0.90299,1.06162 1.56286,2.27293 1.97963,3.63398c0.41677,1.36105 0.62515,2.99428 0.62515,4.89975c0,4.08315 -1.28501,7.17268 -3.85507,9.2687c-2.57005,2.09601 -6.23985,3.144 -11.00951,3.144c-3.19521,0 -5.76522,-0.31304 -7.71013,-0.93912c-1.94491,-0.62608 -3.31095,-1.12966 -4.09818,-1.51075l1.45867,-8.24791c1.2503,0.59886 2.74369,1.17049 4.48021,1.71491c1.73652,0.54442 3.71613,0.81662 5.93888,0.81662z" id="js" fill="#EBEBEB"/>
     </g>
    </g>
   </g>
  </g>
  <text font-style="normal" font-weight="bold" transform="matrix(2.8914 0 0 2.26155 -468.871 -55.5968)" stroke="#000" xml:space="preserve" text-anchor="start" font-family="'Roboto Mono'" font-size="24" id="svg_1" y="60.88435" x="263.30829" stroke-width="0" fill="#b40003">CN</text>
 </g>
</svg>